<svg class="brxe-svg" id="brxe-pcnmaz" xmlns="http://www.w3.org/2000/svg" width="177" height="30" viewBox="0 0 177 30" fill="none" style="fill: none !important;"><path d="M14.5642 0.17601C6.52137 0.17601 0 6.69738 0 14.7403C0 22.7831 6.52137 29.3045 14.5642 29.3045C22.6071 29.3045 29.1285 22.7831 29.1285 14.7403C29.1285 6.69738 22.6071 0.17601 14.5642 0.17601ZM14.5642 26.1384C8.27007 26.1384 3.16614 21.0359 3.16614 14.7403C3.16614 8.44462 8.27007 3.34215 14.5642 3.34215C20.8584 3.34215 25.9623 8.44462 25.9623 14.7403C25.9623 21.0359 20.8599 26.1384 14.5642 26.1384Z" fill="#1A3E44" style="fill: rgb(26, 62, 68) !important;"/><path d="M10.29 13.3243C11.4557 13.3243 12.4007 12.3793 12.4007 11.2135C12.4007 10.0478 11.4557 9.10277 10.29 9.10277C9.12422 9.10277 8.1792 10.0478 8.1792 11.2135C8.1792 12.3793 9.12422 13.3243 10.29 13.3243Z" fill="#1A3E44" style="fill: rgb(26, 62, 68) !important;"/><path d="M18.8386 13.3243C20.0043 13.3243 20.9494 12.3793 20.9494 11.2135C20.9494 10.0478 20.0043 9.10277 18.8386 9.10277C17.6729 9.10277 16.7278 10.0478 16.7278 11.2135C16.7278 12.3793 17.6729 13.3243 18.8386 13.3243Z" fill="#1A3E44" style="fill: rgb(26, 62, 68) !important;"/><path d="M21.1618 17.2365C20.4905 16.8261 19.6139 17.0372 19.2035 17.7085C18.346 19.1113 16.524 20.0172 14.5642 20.0172C12.6044 20.0172 10.7824 19.1113 9.92495 17.7085C9.51453 17.0372 8.63797 16.8261 7.96663 17.2365C7.2953 17.647 7.08422 18.5235 7.49465 19.1963C8.87983 21.461 11.5886 22.8682 14.5642 22.8682C17.5398 22.8682 20.2486 21.461 21.6338 19.1963C22.0442 18.525 21.8332 17.6484 21.1618 17.238V17.2365Z" fill="#1A3E44" style="fill: rgb(26, 62, 68) !important;"/><path d="M49.1695 0.189194C41.1266 0.189194 34.6052 6.71056 34.6052 14.7534C34.6052 22.7963 41.1266 29.3177 49.1695 29.3177C57.2123 29.3177 63.7337 22.7963 63.7337 14.7534C63.7337 6.71056 57.2123 0.189194 49.1695 0.189194ZM49.1695 26.1515C42.8753 26.1515 37.7714 21.0491 37.7714 14.7534C37.7714 8.4578 42.8738 3.35533 49.1695 3.35533C55.4651 3.35533 60.5676 8.4578 60.5676 14.7534C60.5676 21.0491 55.4651 26.1515 49.1695 26.1515Z" fill="#1A3E44" style="fill: rgb(26, 62, 68) !important;"/><path d="M44.8951 13.3375C46.0609 13.3375 47.0059 12.3925 47.0059 11.2267C47.0059 10.061 46.0609 9.11595 44.8951 9.11595C43.7294 9.11595 42.7844 10.061 42.7844 11.2267C42.7844 12.3925 43.7294 13.3375 44.8951 13.3375Z" fill="#1A3E44" style="fill: rgb(26, 62, 68) !important;"/><path d="M53.4438 13.3375C54.6095 13.3375 55.5545 12.3925 55.5545 11.2267C55.5545 10.061 54.6095 9.11595 53.4438 9.11595C52.278 9.11595 51.333 10.061 51.333 11.2267C51.333 12.3925 52.278 13.3375 53.4438 13.3375Z" fill="#1A3E44" style="fill: rgb(26, 62, 68) !important;"/><path d="M49.1695 15.7736C46.1939 15.7736 43.4851 17.1808 42.0984 19.4454C41.688 20.1168 41.8991 20.9933 42.5704 21.4052C43.2417 21.8157 44.1183 21.6046 44.5287 20.9332C45.3877 19.5305 47.2082 18.6246 49.168 18.6246C51.1278 18.6246 52.9483 19.5305 53.8073 20.9332C54.0755 21.373 54.5446 21.6148 55.0239 21.6148C55.2775 21.6148 55.534 21.5474 55.7656 21.4052C56.4369 20.9948 56.648 20.1183 56.2376 19.4454C54.8524 17.1808 52.1421 15.7736 49.168 15.7736H49.1695Z" fill="#1A3E44" style="fill: rgb(26, 62, 68) !important;"/><path d="M71.3185 5.14896C71.3354 5.0106 71.3793 4.34918 71.3793 4.19395C71.3793 4.02522 71.2848 2.48304 71.2848 2.16245C71.2848 1.63939 71.5784 1.3458 71.7943 1.31543C71.8247 1.29856 72.395 1.29856 72.4558 1.29856C72.6245 1.29856 72.8101 1.31543 72.9653 1.31543C73.0733 1.31543 73.5491 1.26819 73.674 1.26819C73.7651 1.26819 74.2578 1.28506 74.3658 1.28506H74.7673C75.4895 1.28506 75.5368 1.62252 75.5368 1.99372C75.5368 2.0106 75.5064 2.2232 75.4895 2.33118C75.4726 2.4223 75.4726 2.68551 75.4726 2.87111C75.4558 3.05672 75.4423 3.24232 75.4423 3.42455C75.4423 3.53253 75.4423 3.90036 75.4895 3.99485C75.5503 4.10284 75.6751 4.21082 75.7966 4.21082C75.9957 4.21082 76.3669 3.64052 76.5188 3.39417C76.5795 3.27269 76.6571 3.14783 76.7482 3.02634C76.8258 2.93523 76.917 2.84074 76.9777 2.73276C77.0249 2.68551 77.2072 2.36155 77.2544 2.30081C77.3928 2.08484 77.4231 2.05447 77.6088 1.70013C77.7302 1.47066 77.8855 1.26819 78.4693 1.26819C78.5773 1.26819 79.1779 1.29856 79.3163 1.29856C79.4243 1.29856 79.9473 1.26819 80.0722 1.26819C80.3354 1.26819 80.5952 1.29856 80.8585 1.29856C80.9664 1.29856 81.476 1.26819 81.5806 1.26819C81.8742 1.26819 82.1644 1.26819 82.1644 1.76088C82.1644 1.99035 82.1476 2.0241 82.0429 2.27044C81.9181 2.54716 81.9046 2.57753 81.7966 2.73276C81.7359 2.84074 81.3815 3.3638 81.3039 3.47179C81.1959 3.61015 81.0879 3.7485 80.98 3.88686C80.872 4.04209 80.764 4.22432 80.656 4.39643C80.5784 4.50441 80.5041 4.59553 80.44 4.70351C80.2409 4.98023 79.9642 5.44255 79.7617 5.70576C79.485 6.06009 79.4546 6.09047 79.4546 6.22882C79.4546 6.41442 79.5795 6.56628 79.7314 6.75188C79.8697 6.90711 80.0249 7.13658 80.1329 7.30531C80.1937 7.43017 80.2578 7.55166 80.3185 7.67652C80.4097 7.84525 80.5176 8.01398 80.6425 8.18608C80.737 8.34131 81.3039 9.0331 81.4119 9.20183C81.5368 9.4178 81.6414 9.64727 81.7662 9.88012C81.9046 10.1433 82.1037 10.4201 82.2286 10.5584C82.5053 10.9296 82.7212 11.2198 82.7212 11.591C82.7212 12.023 82.3804 12.2221 81.9822 12.2221C81.8573 12.2221 81.719 12.2052 81.5975 12.2052C81.5368 12.1883 81.1824 12.1883 81.1048 12.1883C80.9665 12.1883 80.2747 12.158 80.1194 12.158C80.0115 12.158 79.5053 12.1883 79.3804 12.2052H78.7662C78.611 12.2052 78.503 12.2052 78.3208 12.0803C78.1656 11.9724 78.1521 11.942 77.9496 11.6349C77.9023 11.5742 77.8585 11.51 77.8112 11.4358C77.7167 11.3109 77.3658 10.636 77.2713 10.4977C77.1633 10.3424 77.0249 10.2041 76.9001 10.0657C76.7617 9.89699 76.6537 9.71139 76.4985 9.54266C76.377 9.38743 76.2049 9.23557 76.0058 9.23557C75.7764 9.23557 75.53 9.42118 75.4659 9.94424C75.449 10.0691 75.4186 10.636 75.4186 10.7609C75.4186 10.852 75.4186 10.8857 75.4794 11.176C75.4963 11.2839 75.5098 11.3919 75.5098 11.4999C75.5098 11.9015 75.3714 12.131 74.9698 12.2086H73.8933C73.755 12.2086 73.0463 12.131 72.8911 12.131C72.7527 12.131 72.1048 12.2086 71.9665 12.2086C71.3658 12.2086 71.2274 11.8711 71.2274 11.2536C71.2274 11.1456 71.305 10.2986 71.3185 10.1298C71.3185 10.0522 71.3354 9.72826 71.3354 9.69789C71.3354 9.63715 71.305 9.31319 71.305 9.23557C71.305 9.11072 71.3219 8.49654 71.3219 8.35818C71.3219 8.14221 71.2747 7.07922 71.2747 6.83287C71.2747 6.74176 71.305 6.21532 71.305 6.09384V5.15571L71.3185 5.14896Z" fill="#1A3E44" style="fill: rgb(26, 62, 68) !important;"/><path d="M90.0169 3.10056C90.0169 2.93183 90.0169 2.7631 90.0001 2.5775C90.0001 2.49989 89.9697 2.13206 89.9697 2.03757C89.9697 1.91271 89.9866 1.74398 90.1688 1.54488C90.3544 1.31541 90.5366 1.26816 90.9247 1.26816C91.0327 1.26816 91.5557 1.28504 91.5726 1.28504C91.5895 1.28504 92.0349 1.31541 92.0484 1.31541C92.3555 1.31541 92.6795 1.26816 92.9866 1.26816C93.3409 1.26816 93.6952 1.35928 93.7728 1.39302C94.2352 1.59212 94.2352 2.14893 94.2352 2.30079C94.2352 2.30079 94.2183 2.90146 94.2183 2.9622C94.2014 3.10056 94.1407 3.71811 94.1407 3.86997C94.1407 4.0387 94.171 4.87222 94.171 5.05445C94.171 5.43915 94.171 5.74623 94.1407 6.07019C94.1103 6.61013 94.0934 6.654 94.0934 6.80923C94.0934 7.0252 94.1845 8.11856 94.1845 8.36491C94.1845 8.672 94.1677 10.2142 94.1677 10.5516C94.1677 10.69 94.1677 10.8452 94.1845 10.9836C94.2014 11.1523 94.2453 11.321 94.2453 11.5066C94.2453 12.0162 93.8741 12.2153 93.4455 12.2153C93.3375 12.2153 92.8448 12.1546 92.7368 12.1546C92.6592 12.1546 92.2138 12.1714 91.8898 12.2018C91.6738 12.2322 91.6604 12.2322 91.5659 12.2322C90.7188 12.2322 90.6412 12.1411 90.4556 11.9251C90.3949 11.8475 90.3038 11.7699 90.2396 11.6956C90.0405 11.51 89.7942 11.2198 89.6558 11.0173C89.5006 10.8014 89.3791 10.5719 89.2239 10.3559C89.1328 10.2311 88.6536 9.66412 88.5625 9.50889C88.5152 9.44815 88.4849 9.37053 88.441 9.30979C88.3803 9.21868 88.3026 9.12419 88.2419 9.04657C88.1812 8.95546 88.1508 8.87785 88.0732 8.78336C88.0124 8.69224 87.9213 8.59776 87.81 8.59776C87.5332 8.59776 87.5332 8.92171 87.5332 9.12081C87.5332 9.18156 87.5501 9.55276 87.5501 9.64387C87.5501 9.8126 87.5332 10.6293 87.5332 10.8149V10.9701C87.5332 11.0477 87.594 11.4459 87.594 11.5404C87.594 11.5573 87.5771 11.7564 87.5636 11.8171C87.5164 11.9858 87.3173 12.2018 86.9798 12.2018C86.9022 12.2018 86.5344 12.1546 86.4399 12.1546C86.3454 12.1546 85.8527 12.1849 85.7481 12.1849C85.6232 12.1849 84.9922 12.1546 84.8403 12.1546C84.7188 12.1546 84.1013 12.2018 83.9629 12.2018C83.6862 12.2018 83.2543 12.0331 83.2543 11.4324C83.2543 11.294 83.2711 11.1557 83.2846 11.0173C83.2846 10.8317 83.2846 10.663 83.3015 10.4774C83.3184 10.2142 83.3623 9.96783 83.3791 9.70799C83.396 9.58313 83.396 9.46165 83.396 9.32329C83.396 9.15456 83.3656 8.32104 83.3656 8.12194C83.3656 7.96671 83.3488 7.15006 83.3488 6.96783C83.3488 6.67424 83.396 5.21305 83.4264 4.75073C83.4432 4.42677 83.4736 4.10281 83.4736 3.77885C83.4736 3.40765 83.4567 3.33341 83.3656 2.79348C83.3352 2.5775 83.3184 2.3784 83.3184 2.20967C83.3184 1.85534 83.4736 1.54826 83.4871 1.51788C83.639 1.30191 83.8246 1.28841 84.2734 1.28841H84.567C84.6277 1.28841 84.6918 1.30529 84.7357 1.30529H84.8572C85.1508 1.30529 85.8426 1.30529 86.1058 1.28841C86.3049 1.27154 86.5074 1.25804 86.693 1.25804C87.0777 1.25804 87.3409 1.28841 87.648 1.67311C87.6783 1.70349 87.9719 2.14893 88.2014 2.56738C88.279 2.70574 88.3566 2.8306 88.4477 2.95208C88.6468 3.19843 88.6637 3.2288 88.8021 3.49201C88.8628 3.63037 88.9269 3.76873 89.018 3.89359C89.0788 3.95433 89.1429 4.03195 89.1868 4.10956C89.2475 4.18718 89.2948 4.26479 89.342 4.33903C89.5715 4.64612 89.6356 4.74061 89.8347 4.74061C89.9123 4.74061 90.0507 4.67987 90.0507 4.47739C90.0507 4.46052 90.0203 3.92396 90.0203 3.81597V3.10731L90.0169 3.10056Z" fill="#1A3E44" style="fill: rgb(26, 62, 68) !important;"/><path d="M94.7921 6.54941C94.8224 6.33343 94.9 6.11746 94.9135 5.88799C94.9439 5.68889 94.9439 5.47291 94.9743 5.27044C95.035 4.96335 95.5446 3.86999 95.5615 3.82274C95.5918 3.79237 95.8685 3.31318 95.963 3.1917C96.0406 3.11408 96.4861 2.72938 96.5806 2.63827C96.7966 2.42229 97.2285 1.99035 97.7651 1.744C97.8865 1.68326 98.9495 1.31206 99.0272 1.29856C99.1824 1.25131 99.3207 1.23781 99.4726 1.20744C99.5806 1.19057 99.7021 1.1602 99.8101 1.1467C99.9012 1.12983 100.644 1.09946 100.704 1.09946C100.721 1.09946 102.182 1.17707 102.567 1.29856C102.692 1.32893 103.461 1.63601 103.66 1.7305C103.782 1.79125 103.89 1.86886 104.015 1.9296C104.2 2.02072 104.399 2.08483 104.568 2.17595C105.031 2.42229 105.186 2.62139 105.307 2.7935C105.368 2.87111 105.446 2.94873 105.506 3.02297C105.783 3.31656 105.813 3.36043 106.029 3.71476C106.124 3.88349 106.229 4.02184 106.323 4.19057C106.414 4.3458 106.522 4.5449 106.552 4.63602C106.613 4.77438 106.644 4.9431 106.674 5.09833C106.735 5.29743 106.829 5.51341 106.86 5.71588C106.876 5.82387 106.92 6.33343 106.92 6.57978C106.92 6.65739 106.92 6.74851 106.903 6.84299C106.887 7.01172 106.843 7.18045 106.843 7.35255V7.67652C106.843 7.75413 106.843 7.80137 106.826 7.93973C106.779 8.38518 106.748 8.43242 106.532 8.92511C106.455 9.08034 106.394 9.2187 106.347 9.38743C106.299 9.52579 106.269 9.68102 106.208 9.81937C106.191 9.81937 105.84 10.5888 105.27 11.0207C105.149 11.1118 105.007 11.176 104.885 11.2671C104.791 11.3278 104.7 11.4054 104.609 11.483C104.41 11.6518 104.133 11.7901 103.87 11.8677C103.731 11.915 103.576 11.9454 103.438 12.0061C103.283 12.0533 103.144 12.131 102.992 12.1917C102.854 12.2389 102.729 12.2524 102.591 12.2828C102.189 12.3739 102.145 12.3739 101.761 12.4212C101.653 12.4212 101.545 12.4515 101.423 12.4515H100.836C100.728 12.4515 100.222 12.4212 100.114 12.4043H99.5738C99.2971 12.3874 98.9124 12.3436 98.6492 12.2491C98.5412 12.2018 98.4197 12.1411 98.3117 12.0938C98.1565 12.0331 98.0047 12.0027 97.8663 11.9386C97.7448 11.8914 97.6368 11.8306 97.5288 11.7699C97.404 11.6923 97.2994 11.6012 97.1745 11.5067C97.0834 11.4459 96.9889 11.3818 96.8978 11.3211C96.7763 11.2299 96.6515 11.1355 96.5435 11.0275C96.2971 10.798 96.1419 10.5955 95.9428 10.3492C95.8955 10.2716 95.8348 10.2108 95.7741 10.1501C95.5885 9.96448 95.4197 9.77888 95.2814 9.54941C95.2037 9.41105 95.1869 9.33343 95.0047 8.73276C94.927 8.45604 94.8191 8.19283 94.7887 7.91611V7.50104C94.7887 7.42342 94.7583 7.02522 94.7583 6.93073C94.7583 6.80587 94.7752 6.66751 94.7887 6.54603L94.7921 6.54941ZM100.259 5.10171C100.151 5.16245 100.06 5.22657 99.9518 5.28731C99.7662 5.37843 99.5671 5.42567 99.3983 5.56403C99.2769 5.65514 99.26 5.68889 99.0744 6.03984C98.9057 6.3638 98.828 6.50216 98.828 6.79575C98.828 6.96448 98.8753 7.24119 98.9968 7.45717C99.0575 7.54828 99.1486 7.64277 99.2128 7.75076C99.26 7.8115 99.2904 7.87561 99.3207 7.93636C99.4456 8.09159 99.9214 8.48979 100.336 8.48979C100.397 8.48979 100.677 8.50666 100.738 8.50666C100.768 8.50666 101.399 8.44592 101.447 8.42905C101.663 8.3818 101.879 8.26032 101.987 8.13546C102.078 8.04434 102.155 7.93636 102.25 7.84187C102.297 7.79462 102.341 7.76425 102.388 7.73388C102.527 7.59552 102.756 7.19395 102.756 6.80925C102.756 6.50216 102.51 5.90149 102.462 5.82387C102.294 5.53028 101.923 5.33118 101.754 5.27044C101.676 5.24007 101.585 5.22319 101.507 5.19282C101.399 5.16245 101.308 5.10171 101.2 5.06796C101.062 5.02072 100.924 5.00722 100.768 5.00722C100.6 5.00722 100.414 5.03759 100.259 5.09833V5.10171Z" fill="#1A3E44" style="fill: rgb(26, 62, 68) !important;"/><path d="M107.832 6.10394C107.771 5.94871 107.697 5.79686 107.639 5.62813C107.578 5.4729 107.281 4.33566 107.221 4.08932C107.069 3.45827 107.055 3.39753 106.877 2.96558C106.698 2.52014 106.593 2.25692 106.593 1.96333C106.593 1.36266 107.028 1.33229 107.848 1.33229H108.179C108.253 1.33229 108.314 1.34916 108.371 1.34916H108.506C108.598 1.34916 109.016 1.30192 109.121 1.30192C109.212 1.30192 109.299 1.31879 109.374 1.31879C109.418 1.31879 109.566 1.30192 109.613 1.30192C109.644 1.30192 109.762 1.33229 109.792 1.33229C109.806 1.33229 109.897 1.31541 109.927 1.31541C109.958 1.31541 110.255 1.34578 110.315 1.36266C110.734 1.50102 110.825 2.17931 110.838 2.33454C110.882 2.64162 110.882 2.68887 111.017 3.09044C111.034 3.16806 111.196 3.58313 111.226 3.67425C111.301 3.93746 111.287 4.22768 111.361 4.47402C111.405 4.62925 111.466 4.76761 111.51 4.90597C111.719 5.52352 111.763 5.66187 111.898 6.30642C111.972 6.60001 112.063 6.95434 112.303 6.95434C112.377 6.95434 112.421 6.90709 112.468 6.81598C112.512 6.72487 112.691 6.27605 112.738 6.16806C112.947 5.6585 112.964 5.58426 112.964 5.09157C112.964 5.04433 112.964 4.98358 112.947 4.93634C112.931 4.76761 112.856 4.61238 112.812 4.46052C112.782 4.33566 112.769 4.21418 112.738 4.08932C112.708 3.95096 112.677 3.8126 112.634 3.67425C112.546 3.4279 112.424 3.18156 112.35 2.91834C112.32 2.77998 112.289 2.62475 112.259 2.4729C112.229 2.38178 112.198 2.2738 112.154 2.17931C112.094 2.02408 112.05 1.91609 112.05 1.71699C112.05 1.53139 112.185 1.4234 112.273 1.37953C112.347 1.34916 112.391 1.34916 112.691 1.34916C112.752 1.34916 113.005 1.33229 113.066 1.33229C113.109 1.33229 113.288 1.34916 113.335 1.34916C113.366 1.34916 113.501 1.33229 113.528 1.33229C113.572 1.33229 113.798 1.36266 113.842 1.36266C113.916 1.36266 114.216 1.34579 114.29 1.34579H115.306C116.069 1.34579 116.13 1.57526 116.217 2.17593C116.261 2.4054 116.308 2.79348 116.335 3.02295C116.366 3.13094 116.379 3.25242 116.41 3.36041C116.454 3.48527 116.514 3.60675 116.558 3.73161C116.602 3.8396 116.632 3.96109 116.663 4.08594C116.724 4.33229 116.737 4.57863 116.781 4.80811C116.825 5.00721 116.899 5.22318 116.946 5.42565C116.994 5.62813 117.021 5.82723 117.064 6.02633C117.095 6.18156 117.125 6.33342 117.199 6.47177C117.243 6.57976 117.334 6.68775 117.439 6.68775C117.544 6.68775 117.618 6.627 117.692 6.2558C117.706 6.19506 117.722 6.11744 117.722 6.03983C117.739 5.97908 117.827 5.59438 117.871 5.42228C117.915 5.26705 117.989 5.12869 118.019 4.97684C118.08 4.79123 118.094 4.60563 118.124 4.4234C118.185 4.14669 118.364 3.31317 118.438 3.14444C118.482 3.02295 118.542 2.91497 118.573 2.79011C118.647 2.59101 118.634 2.35816 118.661 2.14219C118.691 1.67987 118.765 1.38628 119.184 1.32554C119.258 1.30866 119.693 1.32554 119.781 1.32554C119.886 1.32554 120.334 1.29517 120.425 1.29517C120.517 1.29517 120.962 1.34241 121.067 1.34241C121.158 1.34241 121.559 1.29517 121.65 1.29517C121.742 1.29517 122.221 1.31204 122.295 1.32554C122.727 1.38628 122.774 1.77098 122.774 1.98696C122.774 2.6045 122.312 3.51227 122.207 4.11294C122.147 4.48415 122.147 4.49764 121.985 5.00721C121.91 5.22318 121.819 5.43915 121.745 5.63825C121.701 5.80698 121.654 5.99258 121.61 6.16131C121.505 6.4684 121.505 6.49877 121.445 6.8396C121.428 7.00833 121.401 7.17706 121.34 7.33229C121.235 7.68662 121.07 8.02408 120.952 8.37841C120.891 8.56401 120.861 8.77999 120.803 8.97909C120.743 9.2423 120.655 9.50215 120.55 9.76537C120.49 9.90372 120.432 10.0421 120.371 10.1973C120.328 10.3222 120.28 10.4605 120.22 10.5989C120.189 10.7237 119.967 11.2772 119.906 11.3987C119.757 11.8306 119.605 12.2288 118.951 12.2288C118.89 12.2288 118.725 12.2119 118.576 12.1984C118.411 12.1984 118.245 12.1816 118.188 12.1816C118.144 12.1816 117.996 12.1984 117.861 12.1984C117.709 12.2153 117.577 12.2288 117.517 12.2288C117.473 12.2288 117.338 12.2119 117.203 12.1984C117.085 12.1984 116.95 12.1816 116.889 12.1816C116.845 12.1816 116.68 12.1984 116.514 12.1984C116.366 12.2153 116.201 12.2288 116.14 12.2288C115.542 12.2288 115.438 12.0736 115.377 11.9825C115.347 11.9217 114.959 10.9498 114.959 10.9363C114.928 10.798 114.915 10.6428 114.884 10.5044C114.884 10.4572 114.736 9.79574 114.571 9.79574C114.466 9.79574 114.287 10.3188 114.24 10.474C114.152 10.7676 114.105 11.0747 113.973 11.3379C113.943 11.429 113.882 11.5235 113.855 11.6011C113.572 12.1411 113.541 12.2187 112.944 12.2187C112.779 12.2187 111.972 12.1411 111.793 12.1411C111.466 12.1242 111.122 12.2018 110.791 12.2187H110.389C110.18 12.2187 110.089 12.2018 109.91 12.1411C109.657 12.05 109.505 12.0027 109.357 11.5876C109.326 11.5269 109.239 11.1861 109.208 11.1118C109.134 10.8958 109.134 10.8655 109.073 10.4808C109.043 10.2648 108.999 10.0488 108.938 9.83286C108.79 9.3098 108.564 8.80024 108.402 8.27718C108.236 7.75411 108.149 7.20068 108 6.67425C107.956 6.47515 107.896 6.28955 107.835 6.10394H107.832Z" fill="#1A3E44" style="fill: rgb(26, 62, 68) !important;"/><path d="M135.716 7.45652C135.582 7.6223 135.568 7.65473 135.518 7.78447C135.467 7.93223 135.273 8.2926 135.222 8.37549C135.157 8.50883 135.056 8.671 134.941 9.09985C134.876 9.39536 134.844 10.1522 134.844 10.2855C134.844 10.4837 134.826 11.0747 134.826 11.2405C134.826 11.3558 134.844 11.4531 134.844 11.554C134.862 11.6513 134.959 12.246 134.959 12.2928C134.959 12.3901 134.894 12.6388 134.862 12.7361C134.797 12.9163 134.681 13.1649 134.155 13.1649C134.105 13.1649 133.925 13.1469 133.745 13.1325C133.582 13.1145 133.399 13.1001 133.334 13.1001C133.218 13.1001 132.674 13.1325 132.562 13.1325C132.465 13.1325 131.953 13.082 131.838 13.082C131.708 13.082 131.132 13.1145 130.984 13.1145C130.887 13.1145 130.804 13.1145 130.721 13.0965C130.458 13.0316 130.177 12.7 130.177 12.4045C130.177 12.3865 130.242 12.0586 130.274 11.8964C130.325 11.6657 130.339 11.4351 130.339 11.2045V10.2026C130.339 10.0224 130.288 9.59357 130.274 9.51069C130.274 9.47825 130.011 8.671 129.845 8.36108C129.762 8.1953 129.665 8.04755 129.582 7.88538C129.467 7.65473 129.384 7.40968 129.236 7.17903C129.153 7.01326 129.038 6.8655 128.941 6.71775C128.858 6.56999 128.793 6.42224 128.728 6.2889C128.58 6.02582 128.4 5.79518 128.252 5.55012C128.22 5.49967 127.56 4.16987 127.481 3.98608C127.315 3.60768 127.186 3.31217 126.923 2.8689C126.822 2.68871 126.71 2.52294 126.627 2.34275C126.577 2.24544 126.53 2.07967 126.53 1.9139C126.53 1.60037 126.775 1.40576 127.023 1.40576C127.088 1.40576 127.171 1.42378 127.236 1.4382C127.434 1.47063 127.564 1.48865 127.712 1.48865C127.762 1.48865 127.892 1.47063 128.025 1.47063C128.155 1.45261 128.306 1.45261 128.353 1.45261C128.4 1.45261 128.519 1.47063 128.649 1.47063C128.764 1.48865 128.894 1.50307 128.944 1.50307C128.962 1.50307 129.009 1.50306 129.045 1.48505H129.488C129.553 1.48505 129.784 1.45261 129.852 1.43459H130.379C130.872 1.43459 131.052 1.60037 131.2 1.92831C131.298 2.14094 131.316 2.37158 131.398 2.5878C131.431 2.68511 131.499 2.80043 131.546 2.91575C131.694 3.17883 131.907 3.60768 131.957 3.723C132.054 3.92121 132.137 4.1014 132.22 4.28159C132.303 4.42934 132.418 4.62755 132.548 4.62755C132.746 4.62755 133.157 3.95364 133.305 3.70858C133.388 3.56083 133.467 3.42749 133.568 3.27973C133.665 3.13198 133.781 2.99864 133.881 2.83647C133.946 2.7716 134.062 2.54096 134.127 2.3932C134.191 2.27788 134.242 2.14814 134.307 2.0148C134.39 1.88146 134.487 1.75173 134.62 1.66884C134.768 1.57154 135.114 1.45621 135.327 1.45621C135.359 1.45621 135.46 1.45622 135.557 1.47423C135.64 1.47423 135.737 1.49225 135.77 1.49225C135.82 1.49225 135.936 1.47423 136.051 1.47423C136.166 1.45622 136.282 1.45621 136.332 1.45621C136.545 1.45621 136.743 1.48865 136.959 1.50667C137.172 1.52469 137.485 1.5391 137.615 1.5391C137.712 1.5391 137.828 1.5391 137.929 1.52108C138.062 1.48865 138.256 1.4382 138.339 1.4382C138.422 1.4382 138.635 1.48865 138.635 1.48865C138.75 1.5391 138.88 1.70127 138.88 1.99678C138.88 2.17697 138.829 2.35716 138.747 2.50492C138.682 2.63826 138.599 2.74997 138.534 2.88331C138.483 2.99864 138.451 3.11396 138.386 3.22928C138.336 3.32658 138.238 3.42749 138.156 3.52479C138.073 3.64011 137.993 3.75543 137.925 3.88517C137.842 4.06536 137.763 4.24555 137.68 4.42934C137.532 4.74287 137.449 4.87261 136.973 5.59697C136.873 5.74473 136.761 5.87806 136.66 6.02582C136.48 6.30691 136.314 6.61684 136.116 6.89794C136 7.04569 135.835 7.29435 135.723 7.45652H135.716Z" fill="#1A3E44" style="fill: rgb(26, 62, 68) !important;"/><path d="M138.235 7.07815C138.267 6.8475 138.35 6.61686 138.364 6.3718C138.397 6.15918 138.397 5.92854 138.429 5.71231C138.494 5.38436 139.038 4.21674 139.053 4.16628C139.085 4.13385 139.381 3.62211 139.482 3.49237C139.565 3.40949 140.04 2.99866 140.138 2.90135C140.368 2.67071 140.829 2.20942 141.402 1.94635C141.532 1.88148 142.667 1.48506 142.75 1.47065C142.916 1.4202 143.064 1.40578 143.226 1.37335C143.341 1.35533 143.471 1.32289 143.586 1.30848C143.687 1.29046 144.473 1.25803 144.541 1.25803C144.559 1.25803 146.12 1.34091 146.531 1.47065C146.664 1.50308 147.486 1.83103 147.698 1.93193C147.828 1.9968 147.943 2.07969 148.077 2.14456C148.275 2.24186 148.487 2.31033 148.668 2.40763C149.161 2.67071 149.327 2.88333 149.457 3.06713C149.522 3.15001 149.605 3.2329 149.67 3.31218C149.965 3.62571 149.997 3.67256 150.228 4.05096C150.329 4.23115 150.441 4.37891 150.542 4.5591C150.639 4.72487 150.754 4.93749 150.787 5.0348C150.852 5.18255 150.888 5.36274 150.92 5.52852C150.985 5.74114 151.086 5.97178 151.118 6.18801C151.136 6.30333 151.183 6.8475 151.183 7.11058C151.183 7.19347 151.183 7.29077 151.165 7.39167C151.147 7.57186 151.1 7.75205 151.1 7.93585V8.28181C151.1 8.3647 151.1 8.41515 151.082 8.5629C151.032 9.0386 150.999 9.08906 150.769 9.61521C150.686 9.78098 150.621 9.92874 150.57 10.1089C150.52 10.2567 150.488 10.4225 150.423 10.5702C150.405 10.5702 150.03 11.3919 149.421 11.8532C149.291 11.9505 149.14 12.0189 149.01 12.1162C148.909 12.1811 148.812 12.264 148.715 12.3469C148.502 12.5271 148.206 12.6748 147.925 12.7577C147.778 12.8082 147.612 12.8406 147.464 12.9055C147.298 12.9559 147.15 13.0388 146.988 13.1037C146.841 13.1541 146.707 13.1685 146.559 13.201C146.131 13.2983 146.084 13.2983 145.673 13.3487C145.558 13.3487 145.442 13.3812 145.313 13.3812H144.685C144.57 13.3812 144.03 13.3487 143.914 13.3307H143.338C143.042 13.3127 142.631 13.2659 142.35 13.1649C142.235 13.1145 142.105 13.0496 141.99 12.9992C141.824 12.9343 141.662 12.9019 141.514 12.8334C141.384 12.7829 141.269 12.7181 141.154 12.6532C141.02 12.5703 140.909 12.473 140.775 12.3721C140.678 12.3072 140.577 12.2388 140.48 12.1739C140.35 12.0766 140.217 11.9757 140.101 11.8604C139.838 11.6153 139.673 11.3991 139.46 11.136C139.41 11.0531 139.345 10.9883 139.28 10.9234C139.082 10.7252 138.901 10.527 138.754 10.2819C138.671 10.1342 138.653 10.0513 138.458 9.40979C138.375 9.11428 138.26 8.83319 138.228 8.53768V8.09441C138.228 8.01153 138.195 7.58628 138.195 7.48537C138.195 7.35203 138.213 7.20428 138.228 7.07454L138.235 7.07815ZM144.073 5.53212C143.958 5.59699 143.86 5.66546 143.745 5.73033C143.547 5.82763 143.334 5.87808 143.154 6.02584C143.024 6.12314 143.006 6.15918 142.808 6.53397C142.628 6.87994 142.545 7.02769 142.545 7.34122C142.545 7.52141 142.595 7.81692 142.725 8.04756C142.79 8.14486 142.887 8.24577 142.956 8.36109C143.006 8.42596 143.039 8.49443 143.071 8.5593C143.204 8.72507 143.712 9.15032 144.156 9.15032C144.221 9.15032 144.52 9.16834 144.585 9.16834C144.617 9.16834 145.291 9.10347 145.341 9.08546C145.572 9.035 145.803 8.90527 145.918 8.77192C146.015 8.67462 146.098 8.5593 146.199 8.45839C146.25 8.40794 146.296 8.37551 146.347 8.34307C146.495 8.19532 146.74 7.76647 146.74 7.35564C146.74 7.02769 146.477 6.38622 146.426 6.30333C146.246 5.9898 145.85 5.77718 145.669 5.71231C145.586 5.67987 145.489 5.66185 145.406 5.62942C145.291 5.59699 145.194 5.53212 145.078 5.49608C144.931 5.44563 144.783 5.43121 144.617 5.43121C144.437 5.43121 144.239 5.46365 144.073 5.52852V5.53212Z" fill="#1A3E44" style="fill: rgb(26, 62, 68) !important;"/><path d="M162.315 1.52109C162.513 1.50308 162.712 1.47064 162.906 1.47064C162.939 1.47064 163.317 1.48866 163.465 1.55353C163.53 1.58596 163.728 1.73372 163.778 1.79859C163.926 1.97878 163.959 2.53736 163.959 2.76801C163.959 2.91576 163.941 3.06352 163.941 3.22929C163.941 3.27975 163.959 3.54282 163.959 3.60769C163.959 3.69058 163.959 4.10141 163.941 4.18429C163.923 4.36448 163.89 4.54467 163.876 4.72847C163.876 4.81135 163.793 5.49968 163.793 5.60058C163.793 5.73392 163.811 5.81321 163.825 6.10872C163.843 6.3718 163.858 6.61685 163.858 6.87993C163.858 7.27635 163.825 7.66916 163.825 8.07999C163.825 8.14486 163.843 8.49082 163.843 8.57371C163.843 8.60614 163.825 9.56115 163.631 10.1017C163.58 10.2351 163.533 10.3468 163.483 10.4801C163.45 10.6135 163.418 10.7432 163.368 10.8585C163.285 11.0243 163.169 11.1865 163.072 11.3522C162.989 11.518 162.906 11.6982 162.809 11.846C162.726 11.9937 162.463 12.3217 162.135 12.5379C162.07 12.5883 161.987 12.6352 161.904 12.6856C161.804 12.7505 161.706 12.8334 161.609 12.8983C161.032 13.2262 160.16 13.3415 159.85 13.3415C159.785 13.3415 159.389 13.3235 159.292 13.3235C159.209 13.3235 159.111 13.3235 159.029 13.3415C159.029 13.3415 158.766 13.374 158.632 13.392H158.434C158.369 13.392 158.138 13.374 157.908 13.3595C157.677 13.3415 157.447 13.3271 157.364 13.3271C157.281 13.3271 156.92 13.3595 156.837 13.3595C156.787 13.3595 156.542 13.3271 156.477 13.3271C156.131 13.3271 155.295 13.064 155.162 12.9992C155.028 12.9487 154.996 12.9163 154.7 12.7037C154.603 12.6388 154.045 12.3072 153.929 12.2424C153.749 12.127 153.205 11.7162 152.96 11.2225C152.909 11.1396 152.877 11.0567 152.826 10.9774C152.744 10.8297 152.646 10.6963 152.581 10.5666C152.563 10.5342 152.336 9.84224 152.318 9.74494C152.3 9.66205 152.3 9.64764 152.3 9.43141C152.3 9.31609 152.282 8.70705 152.282 8.57731C152.282 8.42956 152.315 7.73763 152.315 7.57546C152.315 7.46014 152.282 6.8511 152.282 6.72136C152.282 6.59163 152.3 6.44027 152.3 6.31053C152.3 6.26008 152.282 6.01502 152.282 5.95015C152.282 5.83483 152.315 5.19336 152.315 5.0456C152.315 4.86541 152.264 3.96086 152.264 3.74463C152.264 3.59688 152.315 2.89053 152.315 2.74278C152.315 2.65989 152.282 2.33195 152.282 2.26708C152.282 2.1013 152.347 1.92112 152.416 1.77336C152.578 1.49227 152.877 1.49227 153.14 1.49227C153.241 1.49227 153.666 1.5247 153.767 1.5247C153.947 1.5247 154.805 1.49227 155 1.49227C155.064 1.49227 155.41 1.51028 155.493 1.51028H155.857C156.25 1.51028 156.877 1.54272 156.877 2.44727C156.877 2.51214 156.812 2.89053 156.812 2.97342C156.794 3.05631 156.794 3.1392 156.794 3.21848C156.794 3.36623 156.859 4.04014 156.859 4.1879C156.859 4.27079 156.809 4.64919 156.809 4.74649C156.791 4.82937 156.791 5.30507 156.791 5.42039C156.791 5.5177 156.791 5.6186 156.773 5.7159C156.755 6.01142 156.675 6.30693 156.675 6.60244C156.675 6.62046 156.708 6.99525 156.708 7.01327C156.726 7.16103 156.708 7.83493 156.708 8.00071C156.708 8.19892 156.708 8.3791 156.856 8.62416C156.92 8.73948 157.021 8.86922 157.086 8.93769C157.219 9.035 157.562 9.16834 157.645 9.18275C157.76 9.20077 157.875 9.18275 157.991 9.20077C158.023 9.20077 158.254 9.2332 158.304 9.2332C158.387 9.2332 158.47 9.23321 158.549 9.20077C158.711 9.16834 158.729 9.15032 158.978 8.95571C159.306 8.72507 159.371 8.6602 159.371 8.1845C159.389 8.0872 159.371 7.62591 159.371 7.52501C159.371 7.4241 159.436 6.96642 159.436 6.8511C159.436 6.68532 159.385 6.50514 159.385 6.32495C159.385 6.26008 159.436 5.91411 159.436 5.84925C159.436 5.68347 159.32 4.91226 159.32 4.73207C159.32 4.38611 159.385 4.02573 159.385 3.67977C159.385 3.6149 159.367 3.25091 159.367 3.17163C159.367 3.10676 159.385 2.81125 159.385 2.74278C159.385 2.65989 159.32 2.24906 159.32 2.15176C159.32 2.01842 159.339 1.69047 159.666 1.57515C159.731 1.54272 160.063 1.47785 160.211 1.47785C160.358 1.47785 160.506 1.51028 160.654 1.51028H161.18C161.231 1.51028 161.263 1.5283 161.295 1.5283H162.315V1.52109Z" fill="#1A3E44" style="fill: rgb(26, 62, 68) !important;"/><path d="M165.213 3.3482C165.213 3.23288 165.195 2.75718 165.195 2.64186C165.195 2.42924 165.227 2.21301 165.31 2.05084C165.49 1.65442 165.901 1.50667 166.362 1.49226C166.496 1.49226 166.528 1.49225 166.791 1.45982C166.906 1.4418 167.414 1.45982 167.53 1.45982C167.613 1.45982 167.991 1.49226 168.088 1.49226C168.139 1.49226 168.416 1.51027 168.481 1.51027C168.679 1.51027 169.699 1.4454 169.764 1.4454C170.11 1.4454 170.456 1.51027 170.802 1.52829C170.917 1.52829 171.494 1.51027 171.609 1.51027C172.085 1.51027 172.399 1.57514 173.026 1.70848C173.404 1.79137 173.552 1.8238 173.898 1.98958C174.211 2.13733 174.276 2.16977 174.752 2.56618C174.982 2.76439 174.997 2.77881 175.148 3.00945C175.213 3.09234 175.278 3.17522 175.328 3.25451C175.393 3.35181 175.444 3.46713 175.509 3.58245C175.559 3.66534 175.624 3.74823 175.674 3.82751C175.757 3.94283 175.855 4.15545 175.919 4.28879C176.118 4.68521 176.215 5.39155 176.215 5.58976C176.215 5.73752 176.197 5.8204 176.132 6.14835C175.984 6.91956 175.97 7.00245 175.721 7.48175C175.278 8.27098 175.047 8.50162 174.193 8.862C174.078 8.91246 173.912 8.97732 173.912 9.17553C173.912 9.29085 174.027 9.38816 174.143 9.42059C174.226 9.45303 174.521 9.51789 174.618 9.51789C174.669 9.51789 174.964 9.49987 175.047 9.48546C175.112 9.48546 175.426 9.435 175.509 9.435C175.754 9.435 176.348 9.43501 176.348 10.3071C176.348 10.4405 176.283 11.0964 176.283 11.2441C176.283 11.5396 176.334 11.8531 176.334 12.1667C176.334 13.0532 175.891 13.1541 175.563 13.1541C175.512 13.1541 175.249 13.1361 175.202 13.1361C174.957 13.1361 174.709 13.1541 174.478 13.1541C174.413 13.1541 173.656 13.1541 173.343 13.0712C172.867 12.9379 172.125 12.4298 171.714 12.1342C171.566 12.0369 171.4 11.936 171.253 11.8207C171.188 11.7703 170.481 11.2297 170.463 11.2117C170.413 11.1937 170.182 11.1288 170.117 11.1288C169.887 11.1288 169.771 11.3738 169.771 11.5901C169.771 11.7054 169.789 11.936 169.804 12.0333C169.836 12.1306 169.869 12.2135 169.887 12.2964C169.905 12.3469 169.905 12.3937 169.905 12.4622C169.905 12.891 169.692 13.1541 169.231 13.1541C169.133 13.1541 168.723 13.1217 168.622 13.1217C168.488 13.1217 167.865 13.1541 167.732 13.1541C167.616 13.1541 167.519 13.1541 167.418 13.1361C167.321 13.1361 166.892 13.0712 166.795 13.0712C166.679 13.0712 166.103 13.1361 165.955 13.1361C165.364 13.1361 165.184 12.7577 165.184 12.3793C165.184 12.264 165.202 12.1487 165.216 12.0514C165.267 11.6405 165.281 11.5072 165.281 11.2801C165.281 11.0675 165.281 10.3936 165.263 10.1954C165.245 10.1449 165.198 9.65123 165.198 9.65123C165.198 9.42059 165.249 9.18995 165.263 8.97732C165.263 8.89444 165.245 8.53406 165.245 8.45117C165.245 8.31783 165.31 7.71239 165.31 7.56464V5.83842C165.31 5.80599 165.292 5.59337 165.292 5.52489V5.21137C165.292 5.06361 165.227 4.32483 165.209 4.15906V3.35181L165.213 3.3482ZM169.735 5.96095C169.735 6.0114 169.768 6.24205 169.768 6.2889C169.768 6.33575 169.75 6.55198 169.75 6.60243C169.75 7.06371 170.013 7.1466 170.258 7.1466C170.539 7.1466 170.867 7.0493 171.015 6.99884C171.425 6.86911 171.444 6.85109 171.656 6.63847C171.822 6.45828 171.869 6.40782 171.869 6.16277C171.869 5.70148 171.721 5.58616 171.49 5.4384C171.292 5.32308 171.26 5.32308 170.881 5.29065C170.816 5.29065 170.734 5.29065 170.669 5.27263C170.456 5.22218 170.388 5.20776 170.355 5.20776C169.732 5.20776 169.732 5.48886 169.732 5.96456L169.735 5.96095Z" fill="#1A3E44" style="fill: rgb(26, 62, 68) !important;"/><path d="M72.2597 24.5711C72.3748 24.5891 72.472 24.6215 72.5727 24.6358C72.6878 24.6682 72.7849 24.6682 72.8856 24.6862C72.9684 24.7042 73.0331 24.7366 73.1159 24.7689C73.2634 24.8013 73.3965 24.8013 73.5439 24.8337C73.6591 24.8517 73.7742 24.8841 73.9037 24.9164C74.0835 24.9488 74.267 24.9668 74.4612 24.9992C74.7418 25.0639 75.249 25.1323 75.2814 25.1323C75.5117 25.1323 75.6771 24.9524 75.6771 24.8373C75.6771 24.7042 75.5296 24.5747 75.3965 24.5243C75.2958 24.4919 75.2167 24.474 75.1339 24.4596C75.0512 24.4272 74.9864 24.3948 74.9217 24.3624C74.8713 24.3445 74.8066 24.3301 74.7562 24.3121C74.6267 24.2617 73.8209 23.884 73.6087 23.7545C73.5439 23.7221 73.1986 23.4739 73.1159 23.4272C72.8029 23.2149 72.5727 23.0674 72.4756 22.9667C72.2777 22.7868 71.7525 22.0962 71.7525 22.0818C71.6877 21.9846 71.3244 21.2292 71.2777 20.8011C71.2597 20.6357 71.2597 20.4738 71.2453 20.3083C71.2453 20.2759 71.2273 19.981 71.2273 19.981C71.2273 19.7831 71.2777 19.4234 71.4072 19.1428C71.4395 19.0601 71.4719 18.9773 71.5223 18.8982C71.587 18.7327 71.6374 18.5528 71.7201 18.391C71.8496 18.1284 71.9324 18.0456 72.1482 17.8334C72.2489 17.7363 72.3137 17.6355 72.3928 17.5528C72.8029 17.1427 73.4612 16.8621 74.1807 16.7326C74.6087 16.6499 74.6231 16.6499 75.0836 16.6499C75.2311 16.6499 75.9361 16.5995 76.1016 16.5995C76.1843 16.5995 77.6448 16.6499 77.6772 16.6643C77.7096 16.6643 78.5478 16.747 78.8571 17.1571C79.0226 17.3873 79.0226 17.5024 79.0226 18.3226V19.3406C79.0226 19.6536 78.9902 19.8011 78.9399 19.8982C78.8427 20.0781 78.5801 20.2759 78.5621 20.2939C78.4794 20.3443 78.0873 20.4414 78.0046 20.4414C77.9866 20.4414 77.5765 20.3263 77.3463 20.2615C77.1484 20.2112 76.9542 20.2292 76.7383 20.1968C76.6232 20.1788 76.5081 20.1464 76.393 20.132C76.3282 20.1141 76.2599 20.1141 76.2131 20.1141C75.8354 20.1141 75.6879 20.2292 75.6879 20.3443C75.6879 20.4918 75.8678 20.6716 76.3103 20.7867C76.6052 20.8695 76.9685 20.9666 77.1808 21.0817C77.3786 21.1789 77.5405 21.294 77.724 21.4091C77.9218 21.5062 78.1341 21.6069 78.3139 21.722C78.7096 21.9667 79.332 22.5602 79.4291 22.7077C79.4938 22.7904 79.6593 23.0351 79.7097 23.1178C79.76 23.2149 79.7744 23.33 79.8248 23.4307C79.8752 23.5135 79.9219 23.5962 79.9723 23.6933C80.037 23.8408 80.2169 24.4308 80.2169 24.8085C80.2169 24.9236 80.1342 25.4812 80.1342 25.5963C80.1018 25.7942 80.1162 26.0064 80.0694 26.2042C79.9867 26.5316 79.7061 26.9741 79.5442 27.1395C79.4615 27.2223 79.3643 27.287 79.2816 27.3698C79.1665 27.4669 79.0514 27.582 78.9363 27.6827C78.8535 27.7331 78.7744 27.7799 78.6916 27.8302C78.5442 27.913 78.429 28.0101 78.2995 28.0928C77.9038 28.3374 77.6269 28.3878 77.3643 28.4525C76.7887 28.5677 76.7095 28.5677 75.9541 28.5497C75.821 28.5497 75.2311 28.5677 75.1016 28.5677C75.0512 28.5677 74.7886 28.5497 74.7382 28.5497H74.5764C74.4756 28.5497 74.0332 28.4849 73.9181 28.4849C73.7706 28.4669 73.6051 28.4669 73.4432 28.4525C73.3461 28.4346 73.2454 28.4202 73.1303 28.4202C72.7849 28.3698 72.4396 28.3698 72.1122 28.2727C71.8496 28.1899 71.6374 28.0604 71.569 27.895C71.5367 27.7978 71.5043 27.01 71.5043 26.9273C71.5043 26.8446 71.5367 26.4525 71.5367 26.3697C71.5367 26.2546 71.5043 25.679 71.5043 25.5639C71.5043 25.4488 71.5043 25.1682 71.6518 24.9236C71.7993 24.7114 72.0439 24.5783 72.2417 24.5783H72.2597V24.5711Z" fill="#1A3E44" style="fill: rgb(26, 62, 68) !important;"/><path d="M80.127 19.1032C80.127 19.0205 80.1594 18.6284 80.1594 18.5457C80.1594 18.4126 80.0946 17.7579 80.0946 17.6104C80.0946 17.4449 80.1126 17.2327 80.2925 17.0204C80.422 16.8406 80.5551 16.7578 80.9472 16.7578C81.0947 16.7578 81.2601 16.7758 81.4076 16.7758C81.6702 16.7938 81.7206 16.7938 82.0983 16.8262C82.2781 16.8441 82.6415 16.8441 82.7206 16.8441C82.9005 16.8441 83.0983 16.8441 83.2962 16.8262C83.8034 16.7938 83.8538 16.7938 84.0192 16.7938C84.3322 16.7938 84.6596 16.8118 84.9869 16.8262C85.3322 16.8441 86.1668 16.8441 86.5481 16.8441H86.71C86.9546 16.8441 87.2028 16.8118 87.4474 16.7938C87.5949 16.7758 87.7604 16.7758 87.9079 16.7758C88.5626 16.7758 89.2389 16.7758 89.2389 17.7111C89.2389 17.8082 89.2209 17.9089 89.2209 18.0061L89.1705 18.4018V18.7147C89.1705 18.7651 89.1705 19.1428 89.1885 19.3371C89.1885 19.4198 89.2209 19.7795 89.2209 19.8623C89.2209 20.3371 89.023 20.5673 88.5986 20.5673C88.4978 20.5673 88.0554 20.517 87.9403 20.517C86.9402 20.517 86.8251 21.0602 86.8251 21.6177V22.2077C86.8251 22.2724 86.8575 22.553 86.8575 22.6178C86.8575 22.8984 86.8395 23.1754 86.8251 23.4559C86.8251 23.5531 86.7747 24.0459 86.7747 24.161C86.7747 24.2438 86.7927 24.5891 86.7927 24.6538V26.3266C86.7927 26.4921 86.8107 26.6539 86.8251 26.8014C86.8575 27.046 86.9222 27.2763 86.9222 27.5065C86.9222 27.7871 86.8251 28.0137 86.6273 28.1792C86.4798 28.3087 86.3467 28.4094 85.2819 28.4094C85.2171 28.4094 84.9689 28.3914 84.7243 28.377C84.4797 28.377 84.2495 28.359 84.1487 28.359C84.0156 28.359 83.4113 28.3914 83.2602 28.3914C82.7854 28.3914 82.44 28.0461 82.422 28.0317C82.3717 27.9489 82.2925 27.7043 82.2925 27.4417C82.2925 27.4417 82.3249 27.082 82.3429 26.8985C82.3609 26.7187 82.3609 26.5208 82.3609 26.341C82.3609 26.1287 82.3105 25.0783 82.3105 24.8301C82.3105 24.6179 82.3933 23.5998 82.3933 23.3516C82.3933 23.1862 82.3609 22.3156 82.3609 22.1214C82.3609 22.0242 82.3789 21.5458 82.3789 21.4487C82.3789 21.1537 82.3285 20.6429 81.904 20.5961C81.7889 20.5781 81.6918 20.5781 81.5911 20.5781C81.476 20.5601 81.3608 20.5278 81.2457 20.5134C81.0659 20.4954 80.9004 20.5134 80.7385 20.481C80.1809 20.3659 80.1126 19.9738 80.1306 19.5781V19.1032H80.127Z" fill="#1A3E44" style="fill: rgb(26, 62, 68) !important;"/><path d="M100.257 16.8046C100.455 16.7866 100.653 16.7542 100.847 16.7542C100.88 16.7542 101.257 16.7722 101.405 16.8369C101.47 16.8693 101.667 17.0168 101.718 17.0816C101.865 17.2614 101.898 17.819 101.898 18.0492C101.898 18.1967 101.88 18.3442 101.88 18.5097C101.88 18.56 101.898 18.8226 101.898 18.8874C101.898 18.9701 101.898 19.3802 101.88 19.463C101.862 19.6428 101.829 19.8227 101.815 20.0061C101.815 20.0889 101.732 20.776 101.732 20.8767C101.732 21.0098 101.75 21.0889 101.765 21.3839C101.782 21.6465 101.797 21.8911 101.797 22.1537C101.797 22.5494 101.765 22.9415 101.765 23.3516C101.765 23.4164 101.782 23.7617 101.782 23.8444C101.782 23.8768 101.764 24.8301 101.57 25.3697C101.52 25.5028 101.473 25.6143 101.423 25.7474C101.39 25.8805 101.358 26.01 101.308 26.1251C101.225 26.2906 101.11 26.4525 101.013 26.6179C100.93 26.7834 100.847 26.9633 100.75 27.1108C100.667 27.2583 100.405 27.5856 100.077 27.8015C100.013 27.8518 99.9299 27.8986 99.8471 27.9489C99.7464 28.0137 99.6493 28.0964 99.5522 28.1612C98.9766 28.4885 98.1097 28.6036 97.7967 28.6036C97.7319 28.6036 97.3362 28.5857 97.2391 28.5857C97.1564 28.5857 97.0593 28.5857 96.9765 28.6036C96.9765 28.6036 96.7139 28.636 96.5808 28.654H96.383C96.3182 28.654 96.088 28.636 95.8578 28.6216C95.6275 28.6036 95.3973 28.5893 95.3146 28.5893C95.2318 28.5893 94.8721 28.6216 94.7894 28.6216C94.739 28.6216 94.4944 28.5893 94.4296 28.5893C94.0843 28.5893 93.2461 28.3267 93.1166 28.2619C92.9871 28.2115 92.9512 28.1792 92.6562 27.9669C92.5591 27.9022 92.0015 27.5712 91.8864 27.5065C91.7065 27.3914 91.1633 26.9813 90.9187 26.4884C90.8683 26.4057 90.836 26.323 90.7856 26.2438C90.7029 26.0963 90.6057 25.9632 90.541 25.8337C90.523 25.8014 90.2964 25.1107 90.2784 25.0136C90.2604 24.9308 90.2604 24.9164 90.2604 24.7006C90.2604 24.5855 90.2424 23.9775 90.2424 23.848C90.2424 23.7006 90.2748 23.0099 90.2748 22.848C90.2748 22.7329 90.2424 22.1249 90.2424 21.9954C90.2424 21.8659 90.2604 21.7149 90.2604 21.5854C90.2604 21.535 90.2424 21.2904 90.2424 21.2256C90.2424 21.1105 90.2748 20.4702 90.2748 20.3227C90.2748 20.1428 90.2244 19.2399 90.2244 19.0241C90.2244 18.8766 90.2748 18.1715 90.2748 18.0241C90.2748 17.9413 90.2424 17.614 90.2424 17.5492C90.2424 17.3837 90.3072 17.2039 90.3755 17.0564C90.5374 16.7758 90.836 16.7758 91.0986 16.7758C91.1993 16.7758 91.6238 16.8082 91.7245 16.8082C91.9043 16.8082 92.7605 16.7758 92.9548 16.7758C93.0195 16.7758 93.3649 16.7938 93.4476 16.7938H93.8109C94.203 16.7938 94.8289 16.8262 94.8289 17.7291C94.8289 17.7938 94.7642 18.1715 94.7642 18.2543C94.7462 18.337 94.7462 18.4198 94.7462 18.4989C94.7462 18.6464 94.811 19.3191 94.811 19.4666C94.811 19.5493 94.7606 19.927 94.7606 20.0241C94.7426 20.1069 94.7426 20.5817 94.7426 20.6968C94.7426 20.794 94.7426 20.8947 94.7246 20.9918C94.7066 21.2868 94.6275 21.5818 94.6275 21.8767C94.6275 21.8947 94.6599 22.2688 94.6599 22.2868C94.6779 22.4343 94.6599 23.107 94.6599 23.2725C94.6599 23.4703 94.6599 23.6502 94.8074 23.8948C94.8721 24.0099 94.9728 24.1394 95.0376 24.2078C95.1707 24.3049 95.5124 24.438 95.5952 24.4524C95.7103 24.4704 95.8254 24.4524 95.9405 24.4704C95.9729 24.4704 96.2031 24.5027 96.2535 24.5027C96.3362 24.5027 96.4189 24.5027 96.4981 24.4704C96.6636 24.438 96.6779 24.42 96.9262 24.2258C97.2535 23.9955 97.3219 23.9308 97.3219 23.4559C97.3398 23.3588 97.3219 22.8984 97.3219 22.7976C97.3219 22.6969 97.3866 22.2401 97.3866 22.1249C97.3866 21.9595 97.3363 21.7796 97.3363 21.5997C97.3363 21.535 97.3866 21.1897 97.3866 21.1249C97.3866 20.9594 97.2715 20.1896 97.2715 20.0097C97.2715 19.6644 97.3363 19.3047 97.3363 18.9593C97.3363 18.8946 97.3182 18.5313 97.3182 18.4521C97.3182 18.3874 97.3363 18.0924 97.3363 18.0241C97.3363 17.9413 97.2715 17.5312 97.2715 17.4341C97.2715 17.301 97.2895 16.9736 97.6168 16.8585C97.6816 16.8262 98.0125 16.7614 98.16 16.7614C98.3075 16.7614 98.455 16.7938 98.6025 16.7938H99.1277C99.1781 16.7938 99.2104 16.8118 99.2428 16.8118H100.261L100.257 16.8046Z" fill="#1A3E44" style="fill: rgb(26, 62, 68) !important;"/><path d="M103.099 18.7579C103.081 18.6752 103.099 18.2507 103.099 18.15C103.099 18.0852 103.049 17.7543 103.049 17.6751C103.049 16.9521 103.329 16.7722 103.937 16.7722C104.035 16.7722 104.545 16.8046 104.66 16.8046C104.761 16.8046 105.268 16.7866 105.383 16.7866C105.646 16.7866 105.891 16.7866 106.153 16.7542C106.204 16.7362 106.236 16.7362 106.286 16.7362C106.351 16.7182 106.761 16.7362 106.844 16.7362C106.909 16.7362 107.056 16.7542 107.222 16.7542C107.369 16.7722 107.535 16.7866 107.585 16.7866H108.258C108.358 16.7866 108.833 16.819 108.93 16.819C109.013 16.819 109.308 16.7866 109.538 16.7686C109.751 16.7506 109.966 16.7362 110.211 16.7362C110.603 16.7362 111.427 16.7362 111.427 17.7219C111.427 17.819 111.409 18.3298 111.409 18.4449C111.409 18.4953 111.441 19.0529 111.441 19.1356C111.459 19.2004 111.474 19.463 111.474 19.5313C111.474 19.6464 111.409 19.891 111.409 19.909C111.294 20.1896 110.884 20.3047 110.686 20.3191C110.589 20.3371 110.096 20.3371 109.995 20.3371C109.894 20.3371 109.369 20.3875 109.24 20.3875C109.074 20.3875 108.287 20.3047 108.107 20.3047C107.599 20.3047 107.599 20.6501 107.599 20.7148C107.599 21.1429 108.06 21.1429 108.207 21.1429C108.304 21.1429 108.783 21.1105 108.88 21.1105C109.175 21.1105 109.47 21.1429 109.765 21.1429H110.028C110.225 21.1249 110.42 21.0781 110.618 21.0781C111.258 21.0781 111.258 21.5206 111.258 21.7508C111.258 21.8156 111.24 22.1609 111.24 22.2437C111.24 22.3264 111.272 22.6717 111.272 22.7365V22.9991C111.272 23.0962 111.323 23.5423 111.323 23.6394C111.323 24.0675 111.028 24.3121 110.977 24.3445C110.733 24.5423 110.567 24.5423 110.024 24.5423C109.941 24.5423 109.549 24.5747 109.448 24.5747C109.384 24.5747 109.103 24.5567 109.038 24.5567C108.121 24.5567 107.988 24.6215 107.873 24.6898C107.578 24.8553 107.495 25.3121 107.495 25.528C107.495 25.6935 107.527 25.8553 107.527 26.0028C107.56 26.2654 107.56 26.51 107.56 26.7583V27.2835C107.56 27.3482 107.61 27.6935 107.61 27.7583C107.61 27.9238 107.495 28.154 107.477 28.1684C107.427 28.2331 107.247 28.3986 107.049 28.3986C106.984 28.3986 106.639 28.3662 106.556 28.3662C106.423 28.3662 105.718 28.3986 105.571 28.3986C105.455 28.3986 104.865 28.3662 104.718 28.3662C104.603 28.3662 104.045 28.4166 103.912 28.4166C103.534 28.4166 103.157 28.2835 103.06 27.9238C103.027 27.8266 103.027 27.3806 103.027 27.3662C103.027 27.0532 103.078 26.7259 103.078 26.4129C103.078 26.2798 103.045 25.6755 103.045 25.5424C103.045 25.3445 103.11 24.4416 103.11 24.2474C103.11 23.9524 103.092 23.6574 103.06 23.3624C103.042 23.0351 103.027 22.7221 103.027 22.3948C103.027 21.9847 103.142 20.1968 103.142 19.8011C103.142 19.6536 103.092 18.9306 103.092 18.7651L103.099 18.7579Z" fill="#1A3E44" style="fill: rgb(26, 62, 68) !important;"/><path d="M112.671 18.7579C112.653 18.6752 112.671 18.2507 112.671 18.15C112.671 18.0852 112.621 17.7543 112.621 17.6751C112.621 16.9521 112.902 16.7722 113.51 16.7722C113.607 16.7722 114.117 16.8046 114.233 16.8046C114.333 16.8046 114.841 16.7866 114.956 16.7866C115.218 16.7866 115.463 16.7866 115.725 16.7542C115.776 16.7362 115.808 16.7362 115.859 16.7362C115.923 16.7182 116.333 16.7362 116.416 16.7362C116.481 16.7362 116.628 16.7542 116.794 16.7542C116.941 16.7722 117.107 16.7866 117.157 16.7866H117.83C117.931 16.7866 118.405 16.819 118.503 16.819C118.585 16.819 118.88 16.7866 119.11 16.7686C119.323 16.7506 119.539 16.7362 119.783 16.7362C120.175 16.7362 120.999 16.7362 120.999 17.7219C120.999 17.819 120.981 18.3298 120.981 18.4449C120.981 18.4953 121.013 19.0529 121.013 19.1356C121.031 19.2004 121.046 19.463 121.046 19.5313C121.046 19.6464 120.981 19.891 120.981 19.909C120.866 20.1896 120.456 20.3047 120.258 20.3191C120.161 20.3371 119.668 20.3371 119.567 20.3371C119.467 20.3371 118.941 20.3875 118.812 20.3875C118.646 20.3875 117.859 20.3047 117.679 20.3047C117.172 20.3047 117.172 20.6501 117.172 20.7148C117.172 21.1429 117.632 21.1429 117.779 21.1429C117.877 21.1429 118.355 21.1105 118.452 21.1105C118.747 21.1105 119.042 21.1429 119.337 21.1429H119.6C119.798 21.1249 119.992 21.0781 120.19 21.0781C120.83 21.0781 120.83 21.5206 120.83 21.7508C120.83 21.8156 120.812 22.1609 120.812 22.2437C120.812 22.3264 120.844 22.6717 120.844 22.7365V22.9991C120.844 23.0962 120.895 23.5423 120.895 23.6394C120.895 24.0675 120.6 24.3121 120.549 24.3445C120.305 24.5423 120.139 24.5423 119.596 24.5423C119.513 24.5423 119.121 24.5747 119.021 24.5747C118.956 24.5747 118.675 24.5567 118.61 24.5567C117.693 24.5567 117.56 24.6215 117.445 24.6898C117.15 24.8553 117.067 25.3121 117.067 25.528C117.067 25.6935 117.1 25.8553 117.1 26.0028C117.132 26.2654 117.132 26.51 117.132 26.7583V27.2835C117.132 27.3482 117.182 27.6935 117.182 27.7583C117.182 27.9238 117.067 28.154 117.049 28.1684C116.999 28.2331 116.819 28.3986 116.621 28.3986C116.556 28.3986 116.211 28.3662 116.128 28.3662C115.995 28.3662 115.29 28.3986 115.143 28.3986C115.028 28.3986 114.438 28.3662 114.29 28.3662C114.175 28.3662 113.617 28.4166 113.484 28.4166C113.107 28.4166 112.729 28.2835 112.632 27.9238C112.599 27.8266 112.599 27.3806 112.599 27.3662C112.599 27.0532 112.65 26.7259 112.65 26.4129C112.65 26.2798 112.617 25.6755 112.617 25.5424C112.617 25.3445 112.682 24.4416 112.682 24.2474C112.682 23.9524 112.664 23.6574 112.632 23.3624C112.614 23.0351 112.599 22.7221 112.599 22.3948C112.599 21.9847 112.715 20.1968 112.715 19.8011C112.715 19.6536 112.664 18.9306 112.664 18.7651L112.671 18.7579Z" fill="#1A3E44" style="fill: rgb(26, 62, 68) !important;"/><path d="M146.582 18.6974C146.582 18.5159 146.582 18.3345 146.567 18.1454C146.567 18.0623 146.537 17.6691 146.537 17.5708C146.537 17.4423 146.552 17.2608 146.748 17.0491C146.945 16.8071 147.142 16.7542 147.55 16.7542C147.663 16.7542 148.223 16.7693 148.238 16.7693C148.253 16.7693 148.729 16.7996 148.745 16.7996C149.07 16.7996 149.417 16.7542 149.743 16.7542C150.121 16.7542 150.491 16.8525 150.574 16.8827C151.066 17.0945 151.066 17.6842 151.066 17.8506C151.066 17.8506 151.051 18.4857 151.051 18.5537C151.036 18.705 150.967 19.3552 150.967 19.5215C150.967 19.703 150.998 20.5876 150.998 20.7842C150.998 21.1925 150.998 21.5177 150.967 21.8655C150.937 22.4401 150.922 22.4855 150.922 22.6518C150.922 22.8786 151.02 24.0431 151.02 24.3001C151.02 24.6253 151.005 26.266 151.005 26.6214C151.005 26.7726 151.005 26.9314 151.02 27.0826C151.036 27.264 151.088 27.4455 151.088 27.6345C151.088 28.1714 150.695 28.3831 150.242 28.3831C150.128 28.3831 149.599 28.315 149.485 28.315C149.402 28.315 148.934 28.3302 148.586 28.3604C148.359 28.3906 148.344 28.3907 148.245 28.3907C147.346 28.3907 147.263 28.2924 147.066 28.0655C146.998 27.9824 146.9 27.8992 146.839 27.8236C146.627 27.627 146.363 27.317 146.219 27.1053C146.053 26.8784 145.924 26.6289 145.758 26.4021C145.66 26.2736 145.153 25.6687 145.055 25.5023C145.009 25.4343 144.972 25.3511 144.926 25.2906C144.858 25.1923 144.783 25.094 144.714 25.0109C144.646 24.9126 144.616 24.8294 144.533 24.7311C144.465 24.6328 144.367 24.5345 144.253 24.5345C143.958 24.5345 143.958 24.8748 143.958 25.094C143.958 25.1621 143.974 25.5477 143.974 25.646C143.974 25.8275 143.958 26.6894 143.958 26.886V27.0523C143.958 27.1355 144.026 27.5589 144.026 27.6572C144.026 27.6724 144.011 27.8841 143.996 27.9521C143.951 28.1336 143.732 28.3604 143.376 28.3604C143.293 28.3604 142.907 28.315 142.802 28.315C142.696 28.315 142.182 28.3453 142.068 28.3453C141.94 28.3453 141.267 28.315 141.1 28.315C140.972 28.315 140.314 28.3604 140.17 28.3604C139.875 28.3604 139.422 28.1789 139.422 27.5438C139.422 27.3926 139.437 27.2489 139.452 27.1053C139.452 26.9087 139.452 26.7272 139.467 26.5306C139.482 26.2509 139.535 25.9938 139.55 25.714C139.565 25.5855 139.565 25.4494 139.565 25.3057C139.565 25.1243 139.535 24.2396 139.535 24.0279C139.535 23.8616 139.52 22.9996 139.52 22.803C139.52 22.493 139.565 20.943 139.603 20.4516C139.618 20.1113 139.649 19.7635 139.649 19.4233C139.649 19.0301 139.633 18.9469 139.535 18.3798C139.505 18.153 139.49 17.9413 139.49 17.7598C139.49 17.3818 139.656 17.0566 139.671 17.0264C139.838 16.7996 140.034 16.7845 140.503 16.7845H140.813C140.881 16.7845 140.942 16.7996 140.994 16.7996H141.123C141.433 16.7996 142.166 16.7996 142.446 16.7845C142.658 16.7693 142.87 16.7542 143.066 16.7542C143.474 16.7542 143.754 16.7844 144.079 17.1927C144.11 17.223 144.42 17.6993 144.669 18.1379C144.752 18.2815 144.835 18.4176 144.926 18.5462C145.138 18.8108 145.153 18.8411 145.304 19.1208C145.372 19.2645 145.433 19.4157 145.531 19.5442C145.599 19.6123 145.66 19.6954 145.713 19.7711C145.781 19.8542 145.826 19.9374 145.879 20.013C146.128 20.3381 146.189 20.4364 146.401 20.4364C146.484 20.4364 146.627 20.3684 146.627 20.1567C146.627 20.1416 146.597 19.5669 146.597 19.4535V18.7049L146.582 18.6974Z" fill="#1A3E44" style="fill: rgb(26, 62, 68) !important;"/><path d="M160.011 22.6216C159.943 22.7502 159.859 22.8863 159.799 23.0148C159.769 23.0829 159.731 23.1585 159.701 23.2265C159.655 23.3097 159.391 23.718 159.277 23.8843C159.209 23.9675 159.164 24.0507 159.164 24.149C159.164 24.3455 159.292 24.3758 159.572 24.3758L160.079 24.3607C160.321 24.3607 161.046 24.3909 161.402 24.406C161.666 24.406 161.727 24.4363 161.954 24.6329C162.181 24.8446 162.203 24.9731 162.203 25.7141C162.218 25.8275 162.249 26.4324 162.249 26.5609C162.249 26.629 162.234 26.939 162.234 26.9995V27.3926C162.234 27.7707 162.218 28.4058 161.349 28.4058C161.266 28.4058 161.039 28.3907 160.812 28.3756C160.6 28.3605 160.389 28.3453 160.336 28.3453C160.305 28.3453 159.927 28.3756 159.859 28.3907C159.746 28.3907 159.633 28.4058 159.519 28.4058C159.307 28.4058 158.226 28.3226 157.984 28.3226C157.644 28.3226 157.296 28.3227 156.941 28.3378C156.79 28.3529 156.646 28.368 156.502 28.368C156.434 28.368 155.24 28.2849 155.126 28.2849C155.043 28.2849 154.589 28.3302 154.491 28.3302C154.234 28.3302 154.015 28.2017 153.939 28.0504C153.871 27.9522 153.811 27.8539 153.811 26.9087C153.811 26.8104 153.826 26.3341 153.826 26.2358C153.826 26.1224 153.811 25.5326 153.811 25.4041C153.811 25.1621 153.811 24.8824 154.219 24.3229C154.302 24.2094 154.415 24.1111 154.499 23.9977C154.612 23.8541 154.71 23.6877 154.809 23.5441C154.907 23.3929 155.02 23.2643 155.119 23.1358C155.368 22.8258 155.542 22.4628 155.723 22.1075C155.822 21.926 155.92 21.7445 156.033 21.5706C156.23 21.2909 156.313 21.1775 156.313 20.996C156.313 20.8145 156.215 20.6558 155.988 20.6558L155.776 20.686C155.693 20.686 155.595 20.7011 155.565 20.7011H155.308L154.816 20.7465C154.665 20.7616 154.506 20.7767 154.355 20.7919C154.242 20.7919 154.105 20.7919 153.962 20.6104C153.879 20.5121 153.879 20.4818 153.863 20.3004C153.848 20.2172 153.833 20.1189 153.833 20.0358C153.818 19.9677 153.833 19.9526 153.833 19.7409C153.848 19.6123 153.848 18.8411 153.848 18.6294C153.848 18.5462 153.833 18.1379 153.833 18.0396C153.833 17.775 153.901 17.3062 154.128 17.0567C154.294 16.8752 154.65 16.7769 154.846 16.7769C154.945 16.7769 155.043 16.7921 155.126 16.7921C155.172 16.7921 155.376 16.7769 155.421 16.7769C155.565 16.7769 156.283 16.8601 156.449 16.8601C156.616 16.8601 157.1 16.845 157.561 16.8299C158.022 16.8147 158.476 16.7996 158.506 16.7996H158.574C158.74 16.7996 159.459 16.8677 159.64 16.845C159.708 16.845 160.033 16.8299 160.101 16.8299C160.268 16.8299 160.918 16.8147 161.084 16.8147C161.296 16.8147 161.462 16.8299 161.689 16.9584C161.901 17.0869 162.029 17.2382 162.029 17.707L162.014 18.5916L162.029 19.1814C162.029 19.3099 162.014 19.4233 162.014 19.5594C161.984 19.8543 161.969 20.0206 161.553 20.444C161.44 20.5575 161.326 20.6558 161.228 20.7692C161.115 20.8977 161.031 21.0792 160.948 21.2455C160.767 21.5706 160.57 21.7975 160.374 22.0621C160.207 22.2587 160.192 22.2889 160.033 22.5989L160.011 22.6216Z" fill="#1A3E44" style="fill: rgb(26, 62, 68) !important;"/><path d="M135.922 23.5743H129.195C128.945 23.5743 128.742 23.1252 128.742 22.5724C128.742 22.0197 128.945 21.5706 129.195 21.5706H135.922C136.172 21.5706 136.375 22.0197 136.375 22.5724C136.375 23.1252 136.172 23.5743 135.922 23.5743Z" fill="#1A3E44" style="fill: rgb(26, 62, 68) !important;"/><path d="M173.171 23.5743H166.444C166.194 23.5743 165.991 23.1252 165.991 22.5724C165.991 22.0197 166.194 21.5706 166.444 21.5706H173.171C173.421 21.5706 173.624 22.0197 173.624 22.5724C173.624 23.1252 173.421 23.5743 173.171 23.5743Z" fill="#1A3E44" style="fill: rgb(26, 62, 68) !important;"/></svg>